<?xml version="1.0" encoding="utf-8"?>
<!-- Generator: Adobe Illustrator 16.0.3, SVG Export Plug-In . SVG Version: 6.00 Build 0)  -->
<!DOCTYPE svg PUBLIC "-//W3C//DTD SVG 1.1//EN" "http://www.w3.org/Graphics/SVG/1.1/DTD/svg11.dtd">
<svg version="1.1" id="Capa_1" xmlns="http://www.w3.org/2000/svg" xmlns:xlink="http://www.w3.org/1999/xlink" x="0px" y="0px"
	 width="599.832px" height="178.947px" viewBox="6.084 306.526 599.832 178.947"
	 enable-background="new 6.084 306.526 599.832 178.947" xml:space="preserve">
<g>
	<g>
		<path fill="#FFFFFF" d="M256.252,393.495c0,11.811-7.516,17.179-16.821,17.179h-6.084v15.031h-12.168v-49.389h18.253
			C249.095,376.316,256.252,381.684,256.252,393.495z M233.347,387.411v12.168h5.011c3.579,0,5.726-2.147,5.726-6.084
			c0-3.937-2.147-6.084-5.726-6.084H233.347z"/>
		<path fill="#FFFFFF" d="M268.779,376.316h12.168l15.748,49.389h-12.526l-2.147-7.516h-13.958l-2.147,7.516h-12.884
			L268.779,376.316z M279.516,408.168l-2.147-8.589c-0.715-3.222-1.789-6.8-2.147-10.737c-0.716,3.937-1.432,7.515-2.147,10.737
			l-2.505,8.589H279.516z"/>
		<path fill="#FFFFFF" d="M299.916,376.316h18.252c9.664,0,17.537,5.368,17.537,16.463c0,7.158-2.863,11.811-7.516,14.674
			l9.306,18.252h-13.242l-7.874-16.105h-4.295v16.105h-12.168V376.316L299.916,376.316z M317.811,398.863
			c3.579,0,5.727-2.147,5.727-5.727c0-3.579-2.147-5.726-5.727-5.726h-5.727v11.094h5.727V398.863z"/>
		<path fill="#FFFFFF" d="M348.947,387.769h-11.095v-11.453h34.716v11.453h-11.095v37.579h-12.168v-37.579H348.947z"/>
		<path fill="#FFFFFF" d="M376.505,376.316H387.6l14.674,27.916c-0.716-4.295-1.073-8.231-1.073-12.884v-15.031h12.168v49.389
			h-11.095L387.6,397.789c0.716,4.295,1.074,8.232,1.074,12.885v15.031h-12.169V376.316z"/>
		<path fill="#FFFFFF" d="M419.811,376.316H448.8v10.737h-16.821v8.231h15.39v10.379h-15.39v8.59h17.18v11.095h-29.348V376.316
			L419.811,376.316z"/>
		<path fill="#FFFFFF" d="M454.884,376.316h18.253c9.663,0,17.537,5.368,17.537,16.463c0,7.158-2.863,11.811-7.516,14.674
			l9.305,18.252h-13.242l-7.873-16.105h-4.295v16.105h-12.169V376.316z M472.779,398.863c3.578,0,5.726-2.147,5.726-5.727
			c0-3.579-2.147-5.726-5.726-5.726h-5.727v11.094h5.727V398.863z"/>
		<path fill="#FFFFFF" d="M530.042,401.011c0,14.315-5.011,24.694-20.399,24.694h-11.453v-49.389h11.453
			C525.031,376.316,530.042,386.695,530.042,401.011z M502.126,380.252v41.158h7.158c11.811,0,16.105-7.516,16.105-20.758
			c0-13.242-4.295-20.758-16.105-20.758h-7.158V380.252z"/>
		<path fill="#FFFFFF" d="M535.769,401.011c0-15.39,6.084-25.411,17.895-25.411s17.895,10.021,17.895,25.411
			s-6.084,25.41-17.895,25.41C541.495,426.421,535.769,416.4,535.769,401.011z M567.263,401.011c0-13.242-4.294-21.474-13.6-21.474
			s-13.6,8.232-13.6,21.474s4.652,21.474,13.6,21.474S567.263,414.253,567.263,401.011z"/>
		<path fill="#FFFFFF" d="M576.926,401.368c0-16.463,8.232-25.768,19.327-25.768c3.221,0,6.441,0.716,9.305,2.505v3.579
			c-2.505-1.432-5.726-2.147-8.947-2.147c-9.305,0-15.39,7.516-15.39,21.832c0,13.242,5.727,21.116,15.032,21.116
			c3.579,0,6.8-0.716,9.663-2.506v3.938c-3.222,1.789-6.8,2.505-10.379,2.505C585.158,426.421,576.926,418.189,576.926,401.368z"/>
	</g>
	<path fill="#FFFFFF" d="M61.2,430.357v41.158c0,0,0.358,0,0.358,0.358H61.2v13.6h48.315c17.179,0,33.284-5.011,46.884-13.6
		c25.053-15.748,41.516-43.663,41.516-75.874c0-32.21-16.463-59.769-41.516-75.874c-13.6-8.59-30.063-13.6-47.6-13.6H6.084v178.947
		h13.6V320.126h89.474c41.874,0,75.874,34,75.874,75.874c0,41.874-34,75.874-75.874,75.874H74.8v-27.559h21.116
		c12.884,0,24.694-5.368,32.926-13.6c8.947-8.59,14.315-20.758,14.315-34.358c0-13.6-5.368-25.768-14.315-34.357
		c-8.59-8.589-20.758-13.6-33.642-13.6H60.842V362 M61.2,362.358v67.285 M74.8,361.642h20.758c18.968,0,34.358,15.39,34.358,34.358
		c0,18.969-15.39,34.357-34.358,34.357H74.8V361.642z"/>
</g>
</svg>
