<?xml version="1.0" encoding="utf-8"?>
<!-- Generator: Adobe Illustrator 16.0.3, SVG Export Plug-In . SVG Version: 6.00 Build 0)  -->
<!DOCTYPE svg PUBLIC "-//W3C//DTD SVG 1.1//EN" "http://www.w3.org/Graphics/SVG/1.1/DTD/svg11.dtd">
<svg version="1.1" id="Capa_1" xmlns="http://www.w3.org/2000/svg" xmlns:xlink="http://www.w3.org/1999/xlink" x="0px" y="0px"
	 width="191.832px" height="178.947px" viewBox="6.084 306.526 191.832 178.947"
	 enable-background="new 6.084 306.526 191.832 178.947" xml:space="preserve">
<g>
	<path fill="#007182" d="M61.2,430.357v41.158c0,0,0.358,0,0.358,0.358H61.2v13.6h48.315c17.179,0,33.284-5.011,46.884-13.6
		c25.053-15.748,41.516-43.663,41.516-75.874c0-32.21-16.463-59.769-41.516-75.874c-13.6-8.59-30.063-13.6-47.6-13.6H6.084v178.947
		h13.6V320.126h89.474c41.874,0,75.874,34,75.874,75.874c0,41.874-34,75.874-75.874,75.874H74.8v-27.559h21.116
		c12.884,0,24.694-5.368,32.926-13.6c8.947-8.59,14.315-20.758,14.315-34.358c0-13.6-5.368-25.768-14.315-34.357
		c-8.59-8.589-20.758-13.6-33.642-13.6H60.842V362 M61.2,362.358v67.285 M74.8,361.642h20.758c18.968,0,34.358,15.39,34.358,34.358
		c0,18.969-15.39,34.357-34.358,34.357H74.8V361.642z"/>
</g>
</svg>
