<?xml version="1.0" encoding="utf-8"?>
<!-- Generator: Adobe Illustrator 16.0.3, SVG Export Plug-In . SVG Version: 6.00 Build 0)  -->
<!DOCTYPE svg PUBLIC "-//W3C//DTD SVG 1.1//EN" "http://www.w3.org/Graphics/SVG/1.1/DTD/svg11.dtd">
<svg version="1.1" id="Capa_1" xmlns="http://www.w3.org/2000/svg" xmlns:xlink="http://www.w3.org/1999/xlink" x="0px" y="0px"
	 width="191.832px" height="178.947px" viewBox="0 0 191.832 178.947" enable-background="new 0 0 191.832 178.947"
	 xml:space="preserve">
<g>
	<path d="M55.117,123.833v41.156c0,0,0.358,0,0.358,0.359h-0.358v13.6h48.315c17.178,0,33.283-5.012,46.883-13.6
		c25.055-15.748,41.518-43.664,41.518-75.875c0-32.21-16.463-59.77-41.518-75.874C136.715,5.01,120.252,0,102.715,0H0v178.947h13.6
		V13.601h89.474c41.875,0,75.875,34,75.875,75.874c0,41.874-34,75.874-75.875,75.874H68.716V137.79h21.116
		c12.884,0,24.693-5.367,32.925-13.6c8.947-8.59,14.316-20.758,14.316-34.358c0-13.601-5.369-25.769-14.316-34.357
		c-8.59-8.589-20.758-13.601-33.641-13.601H54.758v13.601 M55.117,55.833v67.285 M68.716,55.117h20.758
		c18.967,0,34.357,15.391,34.357,34.358c0,18.969-15.391,34.358-34.357,34.358H68.716V55.117z"/>
</g>
</svg>
