<?xml version="1.0" encoding="utf-8"?>
<!-- Generator: Adobe Illustrator 16.0.3, SVG Export Plug-In . SVG Version: 6.00 Build 0)  -->
<!DOCTYPE svg PUBLIC "-//W3C//DTD SVG 1.1//EN" "http://www.w3.org/Graphics/SVG/1.1/DTD/svg11.dtd">
<svg version="1.1" id="Capa_1" xmlns="http://www.w3.org/2000/svg" xmlns:xlink="http://www.w3.org/1999/xlink" x="0px" y="0px"
	 width="599.832px" height="178.947px" viewBox="0 0 599.832 178.947" enable-background="new 0 0 599.832 178.947"
	 xml:space="preserve">
<g>
	<g>
		<path d="M250.168,86.971c0,11.81-7.516,17.179-16.821,17.179h-6.084v15.031h-12.168v-49.39h18.253
			C243.011,69.791,250.168,75.16,250.168,86.971z M227.263,80.887v12.167h5.011c3.579,0,5.726-2.146,5.726-6.083
			c0-3.938-2.147-6.084-5.726-6.084H227.263L227.263,80.887z"/>
		<path d="M262.695,69.791h12.168l15.748,49.39h-12.526l-2.147-7.516H261.98l-2.147,7.516h-12.884L262.695,69.791z M273.432,101.644
			l-2.147-8.59c-0.715-3.221-1.789-6.8-2.147-10.736c-0.716,3.937-1.432,7.516-2.147,10.736l-2.505,8.59H273.432z"/>
		<path d="M293.832,69.791h18.252c9.664,0,17.537,5.369,17.537,16.463c0,7.159-2.863,11.812-7.516,14.675l9.306,18.252h-13.242
			l-7.874-16.105H306v16.105h-12.168V69.791L293.832,69.791z M311.727,92.339c3.579,0,5.728-2.148,5.728-5.728
			c0-3.578-2.147-5.726-5.728-5.726H306v11.094h5.727V92.339z"/>
		<path d="M342.863,81.244h-11.096V69.791h34.717v11.453h-11.096v37.579h-12.168V81.244H342.863z"/>
		<path d="M370.421,69.791h11.095l14.675,27.917c-0.717-4.297-1.073-8.231-1.073-12.884V69.793h12.168v49.388H396.19l-14.675-27.916
			c0.717,4.295,1.074,8.232,1.074,12.885v15.031h-12.169V69.791z"/>
		<path d="M413.727,69.791h28.989v10.738h-16.821v8.23h15.391v10.378h-15.391v8.59h17.181v11.096h-29.349V69.791L413.727,69.791z"/>
		<path d="M448.8,69.791h18.253c9.663,0,17.537,5.369,17.537,16.463c0,7.159-2.863,11.812-7.516,14.675l9.305,18.252h-13.242
			l-7.873-16.105h-4.295v16.105H448.8V69.791L448.8,69.791z M466.695,92.339c3.578,0,5.726-2.148,5.726-5.728
			c0-3.578-2.146-5.726-5.726-5.726h-5.728v11.094h5.728V92.339z"/>
		<path d="M523.958,94.485c0,14.316-5.011,24.695-20.399,24.695h-11.452v-49.39h11.452C518.947,69.791,523.958,80.17,523.958,94.485
			z M496.042,73.728v41.158h7.158c11.811,0,16.104-7.518,16.104-20.758c0-13.242-4.295-20.759-16.104-20.759h-7.158V73.728
			L496.042,73.728z"/>
		<path d="M529.685,94.485c0-15.389,6.084-25.409,17.896-25.409c11.811,0,17.895,10.021,17.895,25.409
			c0,15.391-6.084,25.41-17.895,25.41C535.411,119.896,529.685,109.876,529.685,94.485z M561.179,94.485
			c0-13.241-4.294-21.473-13.6-21.473s-13.6,8.231-13.6,21.473c0,13.242,4.651,21.475,13.6,21.475S561.179,107.728,561.179,94.485z"
			/>
		<path d="M570.842,94.843c0-16.462,8.232-25.767,19.327-25.767c3.221,0,6.441,0.715,9.305,2.504v3.58
			c-2.505-1.433-5.726-2.147-8.946-2.147c-9.306,0-15.391,7.517-15.391,21.832c0,13.242,5.728,21.115,15.032,21.115
			c3.579,0,6.8-0.717,9.663-2.506v3.938c-3.222,1.789-6.8,2.506-10.379,2.506C579.074,119.896,570.842,111.665,570.842,94.843z"/>
	</g>
	<path d="M55.116,123.833v41.156c0,0,0.358,0,0.358,0.359h-0.358v13.6h48.315c17.179,0,33.284-5.012,46.884-13.6
		c25.053-15.748,41.516-43.664,41.516-75.874s-16.463-59.77-41.516-75.874C136.715,5.011,120.252,0,102.715,0H0v178.946h13.6V13.602
		h89.474c41.874,0,75.874,34,75.874,75.874c0,41.873-34,75.873-75.874,75.873H68.716V137.79h21.116
		c12.884,0,24.694-5.367,32.926-13.6c8.947-8.59,14.315-20.758,14.315-34.357c0-13.601-5.368-25.769-14.315-34.357
		c-8.59-8.589-20.758-13.601-33.642-13.601H54.758v13.601 M55.116,55.834v67.284 M68.716,55.117h20.758
		c18.968,0,34.358,15.391,34.358,34.358c0,18.969-15.39,34.357-34.358,34.357H68.716V55.117z"/>
</g>
</svg>
