<?xml version="1.0" standalone="no"?>
<!DOCTYPE svg PUBLIC "-//W3C//DTD SVG 20010904//EN"
 "http://www.w3.org/TR/2001/REC-SVG-20010904/DTD/svg10.dtd">
<svg version="1.0" xmlns="http://www.w3.org/2000/svg"
 width="768.000000pt" height="768.000000pt" viewBox="0 0 768.000000 768.000000"
 preserveAspectRatio="xMidYMid meet">
<metadata>
Created by potrace 1.11, written by Peter Selinger 2001-2013
</metadata>
<g transform="translate(0.000000,768.000000) scale(0.100000,-0.100000)"
fill="#000000" stroke="none">
<path d="M0 3840 l0 -3580 273 2 272 3 0 3300 c-1 1815 2 3302 6 3305 11 8
3734 4 3819 -4 41 -4 86 -9 100 -11 14 -2 48 -6 75 -9 28 -3 61 -8 75 -11 14
-3 52 -10 85 -16 92 -16 271 -61 345 -87 8 -3 17 -6 20 -7 68 -17 342 -131
450 -187 423 -220 791 -539 1076 -933 62 -85 154 -229 154 -240 0 -5 6 -16 14
-24 8 -9 44 -77 81 -151 36 -74 70 -143 75 -152 6 -10 10 -22 10 -28 0 -6 9
-29 19 -53 17 -37 93 -248 91 -254 0 -2 0 -4 1 -5 2 -7 11 -42 34 -133 25 -98
33 -134 40 -185 3 -14 6 -34 8 -45 3 -11 8 -42 11 -70 4 -27 9 -66 11 -85 22
-162 22 -491 0 -675 -2 -16 -6 -57 -10 -90 -4 -33 -9 -63 -11 -66 -2 -4 -6
-26 -9 -50 -13 -101 -89 -386 -132 -489 -7 -19 -14 -39 -14 -45 -1 -5 -7 -21
-14 -35 -7 -14 -23 -50 -35 -80 -23 -57 -121 -261 -130 -270 -3 -3 -16 -25
-29 -50 -13 -25 -37 -64 -53 -87 -15 -23 -28 -46 -28 -52 0 -6 -4 -11 -8 -11
-5 0 -14 -10 -19 -23 -12 -24 -154 -216 -200 -268 -161 -185 -291 -308 -495
-471 -26 -21 -52 -38 -57 -38 -5 0 -11 -4 -13 -8 -1 -4 -39 -31 -83 -60 -44
-29 -85 -57 -92 -62 -7 -6 -14 -10 -16 -10 -2 0 -42 -22 -88 -48 -115 -65
-281 -145 -374 -178 -27 -9 -54 -20 -60 -24 -13 -9 -88 -30 -96 -27 -3 1 -12
-3 -20 -9 -8 -6 -39 -17 -69 -24 -30 -7 -63 -17 -72 -21 -10 -5 -30 -11 -45
-13 -15 -3 -37 -7 -48 -10 -103 -26 -215 -45 -350 -61 -125 -15 -299 -19 -957
-19 l-768 -1 3 550 2 550 465 2 c526 1 601 5 750 39 93 21 253 66 265 74 6 4
28 13 50 20 43 14 188 84 245 119 19 11 42 24 50 28 8 3 29 17 46 30 17 13 36
23 42 23 7 0 12 3 12 8 0 4 28 28 62 52 66 49 272 248 328 319 154 195 295
470 346 676 56 224 68 323 67 545 0 132 -8 252 -18 290 -3 8 -7 33 -10 55 -4
22 -8 48 -11 57 -3 9 -6 25 -8 35 -12 57 -39 150 -48 161 -6 6 -8 12 -4 12 9
0 -28 95 -85 215 -38 80 -130 238 -141 243 -5 2 -8 10 -8 17 0 7 -3 15 -7 17
-5 2 -28 30 -53 63 -62 84 -259 278 -355 350 -142 107 -289 191 -435 247 -36
14 -74 29 -85 33 -21 8 -36 13 -57 18 -7 1 -18 6 -24 9 -6 4 -21 9 -35 12 -13
2 -53 11 -89 20 -36 8 -81 17 -100 20 -19 3 -44 8 -56 10 -74 15 -252 19 -904
21 -404 1 -740 0 -747 -3 -9 -3 -11 -212 -9 -878 2 -481 5 -877 9 -880 3 -3 2
-18 -2 -32 -3 -15 -5 -52 -4 -82 2 -30 3 -71 2 -90 0 -19 0 -39 0 -45 2 -70 2
-122 1 -130 -1 -5 -1 -14 0 -20 2 -5 4 -755 5 -1665 l2 -1655 1074 0 c591 0
1110 3 1154 7 86 8 211 23 260 32 17 3 45 8 63 11 189 32 504 121 657 185 17
7 36 14 43 16 33 7 438 207 467 231 6 5 33 22 60 38 28 16 80 50 118 77 37 26
69 48 72 48 7 0 186 140 255 198 169 145 342 324 472 489 63 79 83 107 142
192 33 47 63 87 68 89 4 2 8 12 8 22 0 9 6 23 14 29 42 35 213 371 289 566 45
116 50 128 52 138 2 4 4 9 5 12 1 3 3 8 5 13 1 4 4 14 8 22 6 17 30 90 33 105
2 6 12 42 23 81 11 39 23 86 26 104 3 18 8 36 10 40 2 4 7 20 9 36 3 16 8 40
11 54 3 14 9 51 15 82 6 32 13 70 15 85 3 16 8 48 11 73 3 25 7 55 9 67 19
113 27 579 13 738 -7 76 -35 294 -43 335 -3 14 -8 41 -11 60 -4 19 -20 89 -36
155 -16 66 -31 127 -33 135 -2 8 -13 44 -25 80 -12 36 -23 72 -25 80 -3 14
-86 229 -108 280 -5 14 -11 27 -11 30 -4 14 -120 244 -153 301 -72 126 -137
230 -155 249 -10 11 -18 22 -18 25 0 6 -98 143 -115 161 -5 6 -23 28 -40 49
-86 110 -149 179 -281 310 -103 102 -187 178 -259 235 -22 17 -53 42 -70 55
-16 13 -41 33 -54 44 -13 12 -28 21 -32 21 -4 0 -14 6 -21 13 -24 24 -191 133
-298 194 -107 61 -284 149 -375 185 -71 28 -100 39 -102 39 -1 0 -31 12 -65
25 -35 14 -70 27 -78 29 -8 2 -44 13 -80 25 -63 21 -277 76 -332 85 -59 10
-84 15 -108 20 -13 2 -40 7 -60 10 -20 3 -45 7 -55 9 -11 2 -49 7 -85 10 -36
4 -78 10 -95 13 -16 4 -1023 8 -2237 10 l-2208 4 0 -3581z m3735 1367 c17 -4
50 -9 75 -12 95 -13 272 -70 380 -123 71 -34 167 -93 194 -117 6 -6 27 -22 46
-35 19 -13 56 -45 83 -71 26 -26 47 -45 47 -42 0 2 12 -10 27 -29 15 -18 30
-35 33 -38 16 -15 110 -139 110 -145 0 -5 10 -22 23 -39 23 -30 100 -180 103
-201 1 -5 11 -34 23 -62 11 -29 23 -64 25 -79 3 -14 9 -40 15 -57 10 -34 19
-75 28 -142 8 -63 8 -284 -1 -350 -9 -76 -50 -239 -77 -308 -58 -150 -169
-332 -267 -437 -23 -25 -42 -48 -42 -52 0 -5 -4 -8 -10 -8 -5 0 -24 -15 -42
-33 -34 -34 -164 -137 -173 -137 -2 0 -28 -15 -57 -33 -46 -29 -164 -90 -178
-92 -3 0 -41 -13 -85 -28 -85 -28 -201 -55 -275 -64 -55 -6 -960 -11 -977 -5
-17 5 -19 2738 -3 2744 19 6 944 1 975 -5z"/>
</g>
</svg>
